# Blender v3.0.0 OBJ File: 'demo.blend'
# www.blender.org
mtllib demo.mtl
o Plane
v -50.000000 0.000000 50.000000
v 50.000000 0.000000 50.000000
v -50.000000 0.000000 -50.000000
v 50.000000 0.000000 -50.000000
v -50.000000 17.253014 50.000000
v 50.000000 17.253014 50.000000
v -50.000000 17.253014 -50.000000
v 50.000000 17.253014 -50.000000
v -52.889545 17.253014 52.889545
v 52.889545 17.253014 52.889545
v -52.889545 17.253014 -52.889545
v 52.889545 17.253014 -52.889545
v 11.000000 1.000000 9.000000
v 7.000000 1.000000 9.000000
v 7.000000 1.000000 8.000000
v 11.000000 1.000000 8.000000
v 11.000000 5.000000 8.000000
v 11.000000 4.000000 8.000000
v 7.000000 5.000000 8.000000
v 7.000000 4.000000 8.000000
v 5.000000 1.000000 -4.000000
v 5.000000 2.000000 -4.000000
v 5.000000 1.000000 -8.000000
v 5.000000 2.000000 -8.000000
v 9.000000 1.000000 -4.000000
v 9.000000 2.000000 -4.000000
v 9.000000 1.000000 -8.000000
v 9.000000 2.000000 -8.000000
v 7.000000 1.000000 7.000000
v 7.000000 2.000000 7.000000
v 7.000000 1.000000 3.000000
v 7.000000 2.000000 3.000000
v 11.000000 1.000000 7.000000
v 11.000000 2.000000 7.000000
v 11.000000 1.000000 3.000000
v 11.000000 2.000000 3.000000
v 7.000000 4.000000 13.000000
v 7.000000 5.000000 13.000000
v 7.000000 4.000000 9.000000
v 7.000000 5.000000 9.000000
v 11.000000 4.000000 13.000000
v 11.000000 5.000000 13.000000
v 11.000000 4.000000 9.000000
v 11.000000 5.000000 9.000000
v 11.000000 9.666121 4.525009
v 7.000000 9.666121 4.525009
v 7.000000 9.666121 5.525009
v 11.000000 9.666121 5.525009
v 11.000000 5.666121 5.525010
v 11.000000 6.666121 5.525010
v 7.000000 5.666121 5.525010
v 7.000000 6.666121 5.525010
v 7.000000 6.666121 0.525010
v 7.000000 5.666121 0.525010
v 7.000000 6.666121 4.525010
v 7.000000 5.666121 4.525010
v 11.000000 6.666121 0.525010
v 11.000000 5.666121 0.525010
v 11.000000 6.666121 4.525010
v 11.000000 5.666121 4.525010
v -11.000000 0.000000 4.000000
v -11.000000 4.000000 4.000000
v -11.000000 0.000000 -4.000000
v -11.000000 4.000000 -4.000000
v -7.000000 0.000000 4.000000
v -7.000000 4.000000 4.000000
v -7.000000 0.000000 -4.000000
v -7.000000 4.000000 -4.000000
v -11.000000 0.000000 -15.000000
v -11.000000 0.000000 -15.000000
v -7.000000 0.000000 -15.000000
v -7.000000 0.000000 -15.000000
v -11.000000 0.000000 14.000000
v -11.000000 0.000000 14.000000
v -7.000000 0.000000 14.000000
v -7.000000 0.000000 14.000000
v -32.000000 0.000000 4.000000
v -32.000000 4.000000 4.000000
v -32.000000 0.000000 -4.000000
v -32.000000 4.000000 -4.000000
v -42.000000 0.000000 4.000000
v -42.000000 9.000000 4.000000
v -42.000000 0.000000 -4.000000
v -42.000000 9.000000 -4.000000
v 32.000000 0.000000 6.000000
v 32.000000 15.000000 6.000000
v 32.000000 0.000000 -6.000000
v 32.000000 15.000000 -6.000000
v 38.000000 0.000000 6.000000
v 38.000000 15.000000 6.000000
v 38.000000 0.000000 -6.000000
v 38.000000 15.000000 -6.000000
v 32.000000 0.000000 -2.000000
v 32.000000 0.000000 2.000000
v 32.000000 15.000000 2.000000
v 32.000000 15.000000 -2.000000
v 38.000000 0.000000 2.000000
v 38.000000 0.000000 -2.000000
v 38.000000 15.000000 -2.000000
v 38.000000 15.000000 2.000000
v 27.000000 0.000000 2.000000
v 27.000000 0.000000 6.000000
v 27.000000 15.000000 6.000000
v 27.000000 15.000000 -2.000000
v 27.000000 15.000000 -6.000000
v 27.000000 0.000000 -6.000000
v 27.000000 0.000000 -2.000000
v 27.000000 15.000000 2.000000
v 28.000000 13.000000 -9.000000
v 28.000000 14.000000 -9.000000
v 28.000000 13.000000 -13.000000
v 28.000000 14.000000 -13.000000
v 32.000000 13.000000 -9.000000
v 32.000000 14.000000 -9.000000
v 32.000000 13.000000 -13.000000
v 32.000000 14.000000 -13.000000
v 28.000000 13.000000 -19.000000
v 28.000000 14.000000 -19.000000
v 28.000000 13.000000 -23.000000
v 28.000000 14.000000 -23.000000
v 32.000000 13.000000 -19.000000
v 32.000000 14.000000 -19.000000
v 32.000000 13.000000 -23.000000
v 32.000000 14.000000 -23.000000
v 28.000000 13.000000 -28.000000
v 28.000000 14.000000 -28.000000
v 28.000000 13.000000 -32.000000
v 28.000000 14.000000 -32.000000
v 32.000000 13.000000 -28.000000
v 32.000000 14.000000 -28.000000
v 32.000000 13.000000 -32.000000
v 32.000000 14.000000 -32.000000
v 24.200001 13.000000 -41.000000
v 24.200001 14.000000 -41.000000
v 24.200001 13.000000 -45.000000
v 24.200001 14.000000 -45.000000
v 35.799999 13.000000 -41.000000
v 35.799999 14.000000 -41.000000
v 35.799999 13.000000 -45.000000
v 35.799999 14.000000 -45.000000
v -10.000000 0.000000 -24.000000
v -2.000000 8.000000 -32.000000
v -10.000000 0.000000 -48.000000
v -2.000000 8.000000 -40.000000
v 14.000000 0.000000 -24.000000
v 6.000000 8.000000 -32.000000
v 14.000000 0.000000 -48.000000
v 6.000000 8.000000 -40.000000
v -44.162189 0.000000 -24.372368
v -35.805817 6.000000 -22.898914
v -29.417452 0.000000 -34.696747
v -30.890905 6.000000 -26.340374
v -33.837814 0.000000 -9.627632
v -32.364357 6.000000 -17.984003
v -19.093075 0.000000 -19.952007
v -27.449446 6.000000 -21.425461
vt -1.598741 -4.387545
vt 7.854923 -4.387545
vt 7.854923 5.066120
vt -1.598741 5.066120
vt 7.854923 -4.387545
vt 8.128091 -4.660712
vt 8.128091 5.339288
vt 7.854923 5.066120
vt -1.598741 1.946410
vt -1.598741 3.577452
vt 7.854923 3.577452
vt 7.854923 1.946410
vt -6.892794 1.946410
vt -6.892794 3.577452
vt 2.560872 3.577452
vt 2.560872 1.946410
vt 2.560872 1.946410
vt 2.560872 3.577452
vt -6.892794 3.577452
vt -6.892794 1.946410
vt 7.854923 1.946410
vt 7.854923 3.577452
vt -1.598741 3.577452
vt -1.598741 1.946410
vt -1.598741 5.066120
vt -1.871909 5.339288
vt -1.871909 -4.660712
vt -1.598741 -4.387545
vt 4.167994 -0.511542
vt 3.789848 -0.511542
vt 3.789848 -0.417006
vt 4.167994 -0.417006
vt -3.016791 2.419094
vt -3.016791 2.324557
vt -2.922254 2.324557
vt -2.922254 2.419094
vt 3.789848 2.324557
vt 3.789848 2.419094
vt 4.167994 2.419094
vt 4.167994 2.324557
vt 3.789848 -0.511542
vt 4.167994 -0.511542
vt 4.167994 -0.417006
vt 3.789848 -0.417006
vt 4.167994 2.324557
vt 3.789848 2.324557
vt 3.789848 2.040947
vt 4.167994 2.040947
vt -3.016791 2.324557
vt -2.922254 2.324557
vt -2.922254 2.040947
vt -3.016791 2.040947
vt -1.787814 2.040947
vt -1.787814 2.135484
vt -1.409668 2.135484
vt -1.409668 2.040947
vt 3.600775 2.040947
vt 3.600775 2.135484
vt 3.978921 2.135484
vt 3.978921 2.040947
vt -1.409668 2.040947
vt -1.409668 2.135484
vt -1.787814 2.135484
vt -1.787814 2.040947
vt 3.978921 2.040947
vt 3.978921 2.135484
vt 3.600775 2.135484
vt 3.600775 2.040947
vt 3.600775 1.095581
vt 3.978921 1.095581
vt 3.978921 0.717434
vt 3.600775 0.717434
vt 3.978921 1.095581
vt 3.600775 1.095581
vt 3.600775 0.717434
vt 3.978921 0.717434
vt -2.827717 2.040947
vt -2.827717 2.135484
vt -2.449571 2.135484
vt -2.449571 2.040947
vt 3.789848 2.040947
vt 3.789848 2.135484
vt 4.167994 2.135484
vt 4.167994 2.040947
vt -2.449571 2.040947
vt -2.449571 2.135484
vt -2.827717 2.135484
vt -2.827717 2.040947
vt 4.167994 2.040947
vt 4.167994 2.135484
vt 3.789848 2.135484
vt 3.789848 2.040947
vt 3.789848 0.055678
vt 4.167994 0.055678
vt 4.167994 -0.322469
vt 3.789848 -0.322469
vt 4.167994 0.055678
vt 3.789848 0.055678
vt 3.789848 -0.322469
vt 4.167994 -0.322469
vt -3.394937 2.324557
vt -3.394937 2.419094
vt -3.016791 2.419094
vt -2.922254 2.419094
vt -3.394937 2.419094
vt -3.394937 2.324557
vt 4.167994 2.324557
vt 4.167994 2.419094
vt 3.789848 2.419094
vt 3.789848 2.324557
vt 3.789848 -0.511542
vt 4.167994 -0.511542
vt 4.167994 -0.889689
vt 3.789848 -0.889689
vt 3.789848 -0.889689
vt 4.167994 -0.889689
vt -3.016791 2.040947
vt -2.922254 2.040947
vt 4.167994 2.040947
vt 3.789848 2.040947
vt 4.167994 -0.088492
vt 3.789848 -0.088492
vt 3.789848 -0.183028
vt 4.167994 -0.183028
vt -2.593740 2.482067
vt -2.593740 2.576603
vt -2.688277 2.576603
vt -2.688277 2.482067
vt 3.789848 2.576603
vt 3.789848 2.482067
vt 4.167994 2.482067
vt 4.167994 2.576603
vt 3.789848 -0.088492
vt 4.167994 -0.088492
vt 4.167994 -0.183028
vt 3.789848 -0.183028
vt 4.167994 2.576603
vt 3.789848 2.576603
vt 3.789848 2.860213
vt 4.167994 2.860213
vt -2.593740 2.576603
vt -2.688277 2.576603
vt -2.688277 2.860213
vt -2.593740 2.860213
vt -2.215594 2.576603
vt -2.215594 2.482067
vt -2.593740 2.482067
vt -2.688277 2.482067
vt -2.215594 2.482067
vt -2.215594 2.576603
vt 4.167994 2.576603
vt 4.167994 2.482067
vt 3.789848 2.482067
vt 3.789848 2.576603
vt 3.789848 -0.088492
vt 4.167994 -0.088492
vt 4.167994 0.289655
vt 3.789848 0.289655
vt 3.789848 0.289655
vt 4.167994 0.289655
vt -2.593740 2.860213
vt -2.688277 2.860213
vt 4.167994 2.860213
vt 3.789848 2.860213
vt 2.088188 -0.038859
vt 2.088188 0.717434
vt 0.102918 0.717434
vt 0.102918 -0.038859
vt -1.787814 2.324557
vt -1.787814 1.946410
vt -0.747911 1.946410
vt -0.747911 1.946410
vt -2.544107 2.324557
vt -2.544107 1.946410
vt 2.088188 -0.038859
vt 2.466335 -0.038859
vt 2.466335 -0.984226
vt 2.088188 -0.984226
vt 2.088188 0.717434
vt 2.466335 0.717434
vt 2.466335 0.717434
vt 2.466335 -0.038859
vt 2.088188 1.757337
vt 2.088188 1.757337
vt 2.466335 1.757337
vt 2.466335 1.757337
vt -1.787814 1.946410
vt -1.787814 2.324557
vt -0.747911 1.946410
vt -0.747911 1.946410
vt 2.466335 -0.984226
vt 2.088188 -0.984226
vt -3.489474 1.946410
vt -3.489474 1.946410
vt -2.544107 2.324557
vt -2.544107 1.946410
vt -3.489474 1.946410
vt -3.489474 1.946410
vt -0.842448 0.717434
vt -0.842448 -0.038859
vt 0.102918 -0.038859
vt 0.102918 0.717434
vt 2.088188 2.324557
vt 2.088188 1.946410
vt 0.102918 1.946410
vt 0.102918 2.324557
vt 2.088188 1.946410
vt 2.088188 2.324557
vt 0.102918 2.324557
vt 0.102918 1.946410
vt -2.544107 1.946410
vt -2.544107 2.797240
vt -1.787814 2.797240
vt -1.787814 1.946410
vt -0.842448 -0.038859
vt -0.842448 0.717434
vt -0.842448 1.946410
vt -0.842448 2.797240
vt -0.842448 2.797240
vt -0.842448 1.946410
vt 6.153264 -0.227932
vt 6.153264 0.150214
vt 5.680581 0.150214
vt 5.680581 -0.227932
vt 6.153264 1.946410
vt 6.153264 3.364460
vt 6.720484 3.364460
vt 6.720484 1.946410
vt -2.355034 1.946410
vt -2.355034 3.364460
vt -2.733181 3.364460
vt -2.733181 1.946410
vt 6.720484 1.946410
vt 6.720484 3.364460
vt 6.153264 3.364460
vt 6.153264 1.946410
vt 6.153264 0.150214
vt 6.720484 0.150214
vt 6.720484 -0.227932
vt 6.153264 -0.227932
vt 6.720484 0.150214
vt 6.720484 -0.227932
vt 6.720484 0.906507
vt 6.153264 0.906507
vt 6.153264 0.528361
vt 6.720484 0.528361
vt 6.153264 0.906507
vt 6.720484 0.906507
vt 6.720484 0.528361
vt 6.153264 0.528361
vt -1.598741 1.946410
vt -1.598741 3.364460
vt -1.976888 3.364460
vt -1.976888 1.946410
vt 6.153264 1.946410
vt 6.153264 3.364460
vt 5.680581 3.364460
vt 5.680581 1.946410
vt -2.355034 1.946410
vt -2.355034 3.364460
vt -1.976888 3.364460
vt -1.976888 1.946410
vt -1.976888 1.946410
vt -1.976888 3.364460
vt -1.598741 3.364460
vt -1.598741 1.946410
vt -2.733181 1.946410
vt -2.733181 3.364460
vt -2.355034 3.364460
vt -2.355034 1.946410
vt 5.680581 1.946410
vt 5.680581 3.364460
vt 5.680581 0.528361
vt 5.680581 0.906507
vt 5.680581 3.364460
vt 5.680581 1.946410
vt 6.153264 3.364460
vt 6.153264 1.946410
vt 5.680581 1.946410
vt 5.680581 3.364460
vt 5.680581 0.906507
vt 5.680581 0.528361
vt 5.680581 -0.227932
vt 5.680581 0.150214
vt -1.315131 3.175387
vt -1.315131 3.269923
vt -0.936984 3.269923
vt -0.936984 3.175387
vt 5.775117 3.175387
vt 5.775117 3.269923
vt 6.153264 3.269923
vt 6.153264 3.175387
vt -0.936984 3.175387
vt -0.936984 3.269923
vt -1.315131 3.269923
vt -1.315131 3.175387
vt 6.153264 3.175387
vt 6.153264 3.269923
vt 5.775117 3.269923
vt 5.775117 3.175387
vt 5.775117 1.568264
vt 6.153264 1.568264
vt 6.153264 1.190117
vt 5.775117 1.190117
vt 6.153264 1.568264
vt 5.775117 1.568264
vt 5.775117 1.190117
vt 6.153264 1.190117
vt -0.369765 3.175387
vt -0.369765 3.269923
vt 0.008382 3.269923
vt 0.008382 3.175387
vt 5.775117 3.175387
vt 5.775117 3.269923
vt 6.153264 3.269923
vt 6.153264 3.175387
vt 0.008382 3.175387
vt 0.008382 3.269923
vt -0.369765 3.269923
vt -0.369765 3.175387
vt 6.153264 3.175387
vt 6.153264 3.269923
vt 5.775117 3.269923
vt 5.775117 3.175387
vt 5.775117 2.513630
vt 6.153264 2.513630
vt 6.153264 2.135484
vt 5.775117 2.135484
vt 6.153264 2.513630
vt 5.775117 2.513630
vt 5.775117 2.135484
vt 6.153264 2.135484
vt 0.481065 3.175387
vt 0.481065 3.269923
vt 0.859211 3.269923
vt 0.859211 3.175387
vt 5.775117 3.175387
vt 5.775117 3.269923
vt 6.153264 3.269923
vt 6.153264 3.175387
vt 0.859211 3.175387
vt 0.859211 3.269923
vt 0.481065 3.269923
vt 0.481065 3.175387
vt 6.153264 3.175387
vt 6.153264 3.269923
vt 5.775117 3.269923
vt 5.775117 3.175387
vt 5.775117 3.364460
vt 6.153264 3.364460
vt 6.153264 2.986314
vt 5.775117 2.986314
vt 6.153264 3.364460
vt 5.775117 3.364460
vt 5.775117 2.986314
vt 6.153264 2.986314
vt 1.710042 3.175387
vt 1.710042 3.269923
vt 2.088188 3.269923
vt 2.088188 3.175387
vt 5.415878 3.175387
vt 5.415878 3.269923
vt 6.512503 3.269923
vt 6.512503 3.175387
vt 2.088188 3.175387
vt 2.088188 3.269923
vt 1.710042 3.269923
vt 1.710042 3.175387
vt 6.512503 3.175387
vt 6.512503 3.269923
vt 5.415878 3.269923
vt 5.415878 3.175387
vt 5.415878 4.593437
vt 6.512503 4.593437
vt 6.512503 4.215290
vt 5.415878 4.215290
vt 6.512503 4.593437
vt 5.415878 4.593437
vt 5.415878 4.215290
vt 6.512503 4.215290
vt 2.182725 2.608167
vt 2.939018 3.364460
vt 2.939018 4.120753
vt 2.182725 4.877047
vt 3.695311 4.120753
vt 4.451605 4.877047
vt 3.695311 3.364460
vt 4.451605 2.608167
vt -1.046854 2.643369
vt -0.256871 2.504074
vt 0.207768 2.829418
vt 0.347064 3.619401
vt 0.533113 2.364779
vt 1.323096 2.225484
vt 0.068474 2.039435
vt -0.070823 1.249452
vn 0.0000 1.0000 0.0000
vn 0.0000 0.0000 -1.0000
vn -1.0000 0.0000 0.0000
vn 1.0000 0.0000 0.0000
vn 0.0000 0.0000 1.0000
vn 0.0000 -1.0000 0.0000
vn 0.0000 0.9398 -0.3417
vn 0.0000 0.9285 0.3714
vn 0.4472 0.8944 0.0000
vn -0.7071 0.7071 0.0000
vn 0.0000 0.7071 -0.7071
vn 0.7071 0.7071 0.0000
vn 0.0000 0.7071 0.7071
vn -0.4056 0.7071 -0.5792
vn 0.5792 0.7071 -0.4056
vn 0.4056 0.7071 0.5792
vn -0.5792 0.7071 0.4056
usemtl Material.001
s off
f 1/1/1 2/2/1 4/3/1 3/4/1
f 6/5/1 10/6/1 12/7/1 8/8/1
f 1/9/2 5/10/2 6/11/2 2/12/2
f 2/13/3 6/14/3 8/15/3 4/16/3
f 3/17/4 7/18/4 5/19/4 1/20/4
f 4/21/5 8/22/5 7/23/5 3/24/5
f 7/25/1 11/26/1 9/27/1 5/28/1
f 8/8/1 12/7/1 11/26/1 7/25/1
f 5/28/1 9/27/1 10/6/1 6/5/1
f 13/29/6 14/30/6 15/31/6 16/32/6
f 44/33/4 43/34/4 18/35/4 17/36/4
f 20/37/2 19/38/2 17/39/2 18/40/2
f 40/41/1 44/42/1 17/43/1 19/44/1
f 43/45/5 39/46/5 14/47/5 13/48/5
f 39/49/3 20/50/3 15/51/3 14/52/3
f 21/53/3 22/54/3 24/55/3 23/56/3
f 23/57/2 24/58/2 28/59/2 27/60/2
f 27/61/4 28/62/4 26/63/4 25/64/4
f 25/65/5 26/66/5 22/67/5 21/68/5
f 23/69/6 27/70/6 25/71/6 21/72/6
f 28/73/1 24/74/1 22/75/1 26/76/1
f 29/77/3 30/78/3 32/79/3 31/80/3
f 31/81/2 32/82/2 36/83/2 35/84/2
f 35/85/4 36/86/4 34/87/4 33/88/4
f 33/89/5 34/90/5 30/91/5 29/92/5
f 31/93/6 35/94/6 33/95/6 29/96/6
f 36/97/1 32/98/1 30/99/1 34/100/1
f 37/101/3 38/102/3 40/103/3 39/49/3
f 39/49/3 40/103/3 19/104/3 20/50/3
f 43/34/4 44/33/4 42/105/4 41/106/4
f 41/107/5 42/108/5 38/109/5 37/110/5
f 39/111/6 43/112/6 41/113/6 37/114/6
f 44/42/1 40/41/1 38/115/1 42/116/1
f 18/35/4 43/34/4 13/117/4 16/118/4
f 20/37/2 18/40/2 16/119/2 15/120/2
f 45/121/1 46/122/1 47/123/1 48/124/1
f 60/125/4 59/126/4 50/127/4 49/128/4
f 52/129/5 51/130/5 49/131/5 50/132/5
f 56/133/6 60/134/6 49/135/6 51/136/6
f 59/137/2 55/138/2 46/139/2 45/140/2
f 55/141/3 52/142/3 47/143/3 46/144/3
f 53/145/3 54/146/3 56/147/3 55/141/3
f 55/141/3 56/147/3 51/148/3 52/142/3
f 59/126/4 60/125/4 58/149/4 57/150/4
f 57/151/2 58/152/2 54/153/2 53/154/2
f 55/155/1 59/156/1 57/157/1 53/158/1
f 60/134/6 56/133/6 54/159/6 58/160/6
f 50/127/4 59/126/4 45/161/4 48/162/4
f 52/129/5 50/132/5 48/163/5 47/164/5
f 62/165/1 64/166/1 80/167/1 78/168/1
f 68/169/4 67/170/4 71/171/4 72/172/4
f 67/170/4 68/169/4 66/173/4 65/174/4
f 61/175/6 65/176/6 75/177/6 73/178/6
f 63/179/6 67/180/6 65/176/6 61/175/6
f 68/181/1 64/166/1 62/165/1 66/182/1
f 69/183/5 70/184/5 72/185/5 71/186/5
f 67/180/6 63/179/6 69/183/6 71/186/6
f 64/166/7 68/181/7 72/185/7 70/184/7
f 63/187/3 64/188/3 70/189/3 69/190/3
f 75/177/5 76/191/5 74/192/5 73/178/5
f 66/182/8 62/165/8 74/192/8 76/191/8
f 65/174/4 66/173/4 76/193/4 75/194/4
f 62/195/3 61/196/3 73/197/3 74/198/3
f 78/168/9 80/167/9 84/199/9 82/200/9
f 63/179/6 61/175/6 77/201/6 79/202/6
f 64/203/2 63/204/2 79/205/2 80/206/2
f 61/207/5 62/208/5 78/209/5 77/210/5
f 81/211/3 82/212/3 84/213/3 83/214/3
f 79/202/6 77/201/6 81/215/6 83/216/6
f 80/206/2 79/205/2 83/217/2 84/218/2
f 77/210/5 78/209/5 82/219/5 81/220/5
f 86/221/1 95/222/1 108/223/1 103/224/1
f 87/225/2 88/226/2 92/227/2 91/228/2
f 97/229/4 100/230/4 90/231/4 89/232/4
f 89/233/5 90/234/5 86/235/5 85/236/5
f 94/237/6 97/238/6 89/239/6 85/240/6
f 100/241/1 95/222/1 86/221/1 90/242/1
f 92/243/1 88/244/1 96/245/1 99/246/1
f 99/246/1 96/245/1 95/222/1 100/241/1
f 87/247/6 91/248/6 98/249/6 93/250/6
f 93/250/6 98/249/6 97/238/6 94/237/6
f 91/251/4 92/252/4 99/253/4 98/254/4
f 98/254/4 99/253/4 100/230/4 97/229/4
f 93/255/5 96/256/5 104/257/5 107/258/5
f 94/259/3 95/260/3 96/261/3 93/262/3
f 107/263/3 104/264/3 105/265/3 106/266/3
f 102/267/3 103/268/3 108/269/3 101/270/3
f 88/226/2 87/225/2 106/271/2 105/272/2
f 87/247/6 93/250/6 107/273/6 106/274/6
f 85/236/5 86/235/5 103/275/5 102/276/5
f 95/277/2 94/278/2 101/279/2 108/280/2
f 96/245/1 88/244/1 105/281/1 104/282/1
f 94/237/6 85/240/6 102/283/6 101/284/6
f 109/285/3 110/286/3 112/287/3 111/288/3
f 111/289/2 112/290/2 116/291/2 115/292/2
f 115/293/4 116/294/4 114/295/4 113/296/4
f 113/297/5 114/298/5 110/299/5 109/300/5
f 111/301/6 115/302/6 113/303/6 109/304/6
f 116/305/1 112/306/1 110/307/1 114/308/1
f 117/309/3 118/310/3 120/311/3 119/312/3
f 119/313/2 120/314/2 124/315/2 123/316/2
f 123/317/4 124/318/4 122/319/4 121/320/4
f 121/321/5 122/322/5 118/323/5 117/324/5
f 119/325/6 123/326/6 121/327/6 117/328/6
f 124/329/1 120/330/1 118/331/1 122/332/1
f 125/333/3 126/334/3 128/335/3 127/336/3
f 127/337/2 128/338/2 132/339/2 131/340/2
f 131/341/4 132/342/4 130/343/4 129/344/4
f 129/345/5 130/346/5 126/347/5 125/348/5
f 127/349/6 131/350/6 129/351/6 125/352/6
f 132/353/1 128/354/1 126/355/1 130/356/1
f 133/357/3 134/358/3 136/359/3 135/360/3
f 135/361/2 136/362/2 140/363/2 139/364/2
f 139/365/4 140/366/4 138/367/4 137/368/4
f 137/369/5 138/370/5 134/371/5 133/372/5
f 135/373/6 139/374/6 137/375/6 133/376/6
f 140/377/1 136/378/1 134/379/1 138/380/1
f 141/381/10 142/382/10 144/383/10 143/384/10
f 143/384/11 144/383/11 148/385/11 147/386/11
f 147/386/12 148/385/12 146/387/12 145/388/12
f 145/388/13 146/387/13 142/382/13 141/381/13
f 148/385/1 144/383/1 142/382/1 146/387/1
f 149/389/14 150/390/14 152/391/14 151/392/14
f 151/392/15 152/391/15 156/393/15 155/394/15
f 155/394/16 156/393/16 154/395/16 153/396/16
f 153/396/17 154/395/17 150/390/17 149/389/17
f 156/393/1 152/391/1 150/390/1 154/395/1
